<?xml version="1.0" encoding="UTF-8" standalone="no"?>
<!-- Created with Inkscape (http://www.inkscape.org/) -->

<svg
   xmlns:dc="http://purl.org/dc/elements/1.1/"
   xmlns:cc="http://creativecommons.org/ns#"
   xmlns:rdf="http://www.w3.org/1999/02/22-rdf-syntax-ns#"
   xmlns:svg="http://www.w3.org/2000/svg"
   xmlns="http://www.w3.org/2000/svg"
   xmlns:xlink="http://www.w3.org/1999/xlink"
   xmlns:sodipodi="http://sodipodi.sourceforge.net/DTD/sodipodi-0.dtd"
   xmlns:inkscape="http://www.inkscape.org/namespaces/inkscape"
   width="210mm"
   height="297mm"
   viewBox="0 0 210 297"
   version="1.1"
   id="svg8"
   inkscape:version="0.92.2 5c3e80d, 2017-08-06"
   sodipodi:docname="mill.svg"
   inkscape:export-filename="/Users/dash/bitmap.png"
   inkscape:export-xdpi="12.279989"
   inkscape:export-ydpi="12.279989">
  <defs
     id="defs2" />
  <sodipodi:namedview
     id="base"
     pagecolor="#ffffff"
     bordercolor="#666666"
     borderopacity="1.0"
     inkscape:pageopacity="0.0"
     inkscape:pageshadow="2"
     inkscape:zoom="0.35"
     inkscape:cx="448.62071"
     inkscape:cy="650.31446"
     inkscape:document-units="mm"
     inkscape:current-layer="layer2"
     showgrid="false"
     inkscape:measure-start="0,0"
     inkscape:measure-end="0,0"
     showguides="true"
     inkscape:guide-bbox="true"
     inkscape:window-width="1440"
     inkscape:window-height="807"
     inkscape:window-x="0"
     inkscape:window-y="1"
     inkscape:window-maximized="1" />
  <metadata
     id="metadata5">
    <rdf:RDF>
      <cc:Work
         rdf:about="">
        <dc:format>image/svg+xml</dc:format>
        <dc:type
           rdf:resource="http://purl.org/dc/dcmitype/StillImage" />
        <dc:title></dc:title>
      </cc:Work>
    </rdf:RDF>
  </metadata>
  <g
     inkscape:groupmode="layer"
     id="layer2"
     inkscape:label="Layer 2">
    <path
       style="fill:#2c2c55;fill-opacity:1;stroke-width:0.82030064"
       d="m 11.003033,14.605481 c -1.7214763,0 -3.1065634,1.385096 -3.1065634,3.106572 v 21.130748 c 0,1.721496 1.3850871,3.108192 3.1065634,3.108192 h 30.660343 c 1.721475,0 3.106568,-1.386696 3.106568,-3.108192 V 17.712053 c 0,-1.721476 -1.385093,-3.106572 -3.106568,-3.106572 z m 5.490565,4.45398 h 9.218777 c 1.721475,0 3.106571,1.385084 3.106571,3.106569 v 12.2228 c 0,1.721476 -1.385096,3.108169 -3.106571,3.108169 h -9.218777 c -1.721475,0 -3.108168,-1.386693 -3.108168,-3.108169 v -12.2228 c 0,-1.721485 1.386693,-3.106569 3.108168,-3.106569 z"
       id="rect24"
       inkscape:connector-curvature="0"
       inkscape:export-filename="/Users/dash/desktop/mill.png"
       inkscape:export-xdpi="12.279989"
       inkscape:export-ydpi="12.279989" />
    <path
       style="fill:#2c2c55;fill-opacity:1;stroke-width:0.82030064"
       d="m 22.119433,43.252151 v 8.701275 48.474644 H 8.8616438 v 30.24538 h 6.1875022 7.070287 v 43.16191 l -6.940514,-0.0224 -7.030232,7.03022 0.2931926,15.82124 42.1862094,0.58478 9.082581,-11.42493 89.0603,-0.2932 9.08259,12.01132 42.18622,-0.29319 v -15.52644 l -6.44547,-7.32502 -7.82168,-0.0257 v -43.69861 h 14.0877 v -30.24538 h -14.0877 V 43.252151 h -7.87136 -0.41497 -47.73445 v 8.286317 h 47.73445 v 9.114631 h -47.78411 v 7.872957 h 47.78411 v 31.902014 h -18.64261 v -7.871371 h -28.17381 v 7.871371 H 119.48367 V 92.141753 H 89.651646 v 8.286317 H 78.46544 V 91.726791 H 49.049972 v 8.701279 H 29.990801 V 68.526056 H 115.89326 V 60.653099 H 29.990801 V 51.953426 H 115.67056 V 43.252151 H 29.990801 Z m 7.871368,87.421299 H 177.4863 v 43.6714 L 29.990801,173.861 Z"
       id="rect26"
       inkscape:export-filename="/Users/dash/desktop/mill.png"
       inkscape:export-xdpi="12.279989"
       inkscape:export-ydpi="12.279989"
       inkscape:connector-curvature="0" />
    <path
       style="fill:#2c2c55;fill-opacity:1;stroke-width:0.82030064"
       d="m 123.21188,0.16393044 c -5.67047,0 -10.28172,4.33993146 -10.72799,9.89167756 L 83.807005,10.191786 C 68.79257,10.997445 69.378731,36.704387 84.100202,38.022734 l 24.685918,-0.09613 c 1.91631,2.957405 5.23818,4.912188 9.03933,4.912188 h 1.36664 l 0.28358,32.244868 3.8083,8.203004 4.39471,-8.789393 -0.28039,-31.658475 h 1.61337 c 3.8053,0 7.13201,-1.95897 9.04734,-4.921806 h 46.53764 c 2.52484,0 4.55813,-2.033287 4.55812,-4.558116 1e-5,-2.524835 -2.03328,-4.558115 -4.55812,-4.558115 h -44.81212 v -7.506071 c 0,-4.170138 -2.35027,-7.766738 -5.79978,-9.558431 v -0.799473 c 0,-5.9677776 -4.80507,-10.77285245 -10.77286,-10.77285245 z M 121.76354,11.531182 h 3.2123 c 0.0775,0 0.1526,0.06166 0.16664,0.137785 l 0.6008,3.228334 c 0.0144,0.07614 0.0867,0.158368 0.1602,0.182648 l 2.16291,0.885982 c 0.0693,0.03413 0.17971,0.02619 0.24353,-0.01761 l 2.69642,-1.850483 c 0.0638,-0.0438 0.16141,-0.03565 0.21629,0.01923 l 2.27025,2.271847 c 0.0549,0.05486 0.0643,0.152469 0.0208,0.216288 l -1.81844,2.649958 c -0.0441,0.06418 -0.0518,0.173018 -0.016,0.241922 l 0.95648,2.231793 c 0.0256,0.0733 0.10989,0.14434 0.18585,0.158613 l 3.12098,0.581585 c 0.0759,0.01443 0.13798,0.08894 0.13779,0.16662 v 3.212313 c 0,0.07748 -0.0619,0.152757 -0.13779,0.16662 l -3.04568,0.567163 c -0.0763,0.01386 -0.15766,0.08639 -0.18104,0.160213 l -0.95008,2.374386 c -0.0341,0.06969 -0.026,0.178111 0.0177,0.241931 l 1.73034,2.520177 c 0.0439,0.0638 0.0341,0.16141 -0.0208,0.216288 l -2.27186,2.270248 c -0.0545,0.05447 -0.15085,0.0643 -0.21467,0.02083 l -2.47533,-1.699877 c -0.0638,-0.04389 -0.17187,-0.0469 -0.23872,-0.0081 l -1.09106,0.583184 c -0.0693,0.03509 -0.14983,0.0058 -0.17945,-0.06569 l -2.25102,-5.4393 c -0.0296,-0.07158 -1e-5,-0.163034 0.0657,-0.203475 l 0.27397,-0.168219 c 0.0503,-0.03076 0.11811,-0.08274 0.17143,-0.131379 0.98584,-0.631157 1.6406,-1.735445 1.6406,-2.992818 0,-1.962209 -1.59156,-3.553567 -3.55357,-3.553567 -1.96201,0 -3.55196,1.591358 -3.55196,3.553567 0,1.257373 0.65334,2.361661 1.63899,2.992818 0.0538,0.04861 0.12251,0.100616 0.17304,0.131379 l 0.27396,0.168219 c 0.0661,0.04044 0.0954,0.131945 0.0657,0.203475 l -2.25102,5.4393 c -0.0296,0.07186 -0.11037,0.101045 -0.17945,0.06569 l -1.09266,-0.583184 c -0.0666,-0.03897 -0.17331,-0.03563 -0.23712,0.0081 l -2.47533,1.699877 c -0.064,0.04348 -0.16157,0.03364 -0.21629,-0.02083 l -2.27184,-2.270252 c -0.0547,-0.05487 -0.0629,-0.152551 -0.0192,-0.216288 l 1.72872,-2.520177 c 0.0441,-0.06382 0.0532,-0.173888 0.0192,-0.243531 L 114.02208,26.7404 c -0.0232,-0.07386 -0.10492,-0.144751 -0.18105,-0.158614 l -3.04407,-0.567163 c -0.0761,-0.01386 -0.13779,-0.08919 -0.13779,-0.16662 v -3.212314 c 0,-0.07747 0.0614,-0.152264 0.13779,-0.166619 l 3.12098,-0.581586 c 0.0763,-0.01423 0.15882,-0.08536 0.18425,-0.158613 l 0.95809,-2.231792 c 0.0355,-0.06892 0.0276,-0.177694 -0.016,-0.241923 l -1.81848,-2.649959 c -0.0439,-0.06379 -0.0355,-0.161411 0.0192,-0.216289 l 2.27185,-2.271847 c 0.0547,-0.05487 0.1523,-0.06303 0.21629,-0.01923 l 2.69641,1.850483 c 0.0636,0.04389 0.17405,0.05182 0.24353,0.01761 l 2.16291,-0.885983 c 0.0737,-0.02431 0.14578,-0.106523 0.16021,-0.182647 l 0.60081,-3.228335 c 0.0141,-0.07607 0.0894,-0.137785 0.16662,-0.137785 z M 84.46549,18.249 l 23.01328,0.05927 c -0.27153,0.948432 -0.42457,1.948436 -0.42457,2.986412 v 7.506071 h -2.00588 c -0.0716,0 -0.14074,0.008 -0.2115,0.01121 l -20.445028,0.05608 c -4.101508,-1.391582 -4.394011,-9.447189 0.0737,-10.619047 z"
       id="rect48"
       inkscape:export-filename="/Users/dash/desktop/mill.png"
       inkscape:export-xdpi="12.279989"
       inkscape:export-ydpi="12.279989"
       inkscape:connector-curvature="0" />
    <g
       id="g4844"
       transform="matrix(0.26458333,0,0,0.26458333,87.242233,28.107529)" />
    <ellipse
       style="opacity:1;fill:#ffffff;fill-opacity:1;stroke:none;stroke-width:0.48445162"
       id="path4851"
       cx="55.123829"
       cy="112.77798"
       rx="4.7137456"
       ry="4.8026848"
       inkscape:tile-cx="75.037726"
       inkscape:tile-cy="125.58779"
       inkscape:tile-w="5.0081843"
       inkscape:tile-h="5.1026787"
       inkscape:tile-x0="72.533633"
       inkscape:tile-y0="123.03645"
       inkscape:export-filename="/Users/dash/desktop/mill.png"
       inkscape:export-xdpi="12.279989"
       inkscape:export-ydpi="12.279989" />
    <use
       x="0"
       y="0"
       inkscape:tiled-clone-of="#path4851"
       xlink:href="#path4851"
       transform="translate(10.841615)"
       id="use4914"
       width="100%"
       height="100%"
       style="fill:#ffffff;fill-opacity:1"
       inkscape:export-filename="/Users/dash/desktop/mill.png"
       inkscape:export-xdpi="12.279989"
       inkscape:export-ydpi="12.279989" />
    <use
       x="0"
       y="0"
       inkscape:tiled-clone-of="#path4851"
       xlink:href="#path4851"
       transform="translate(32.524843)"
       id="use4918"
       width="100%"
       height="100%"
       style="fill:#ffffff;fill-opacity:1"
       inkscape:export-filename="/Users/dash/desktop/mill.png"
       inkscape:export-xdpi="12.279989"
       inkscape:export-ydpi="12.279989" />
    <use
       x="0"
       y="0"
       inkscape:tiled-clone-of="#path4851"
       xlink:href="#path4851"
       transform="translate(43.366458)"
       id="use4920"
       width="100%"
       height="100%"
       style="fill:#ffffff;fill-opacity:1"
       inkscape:export-filename="/Users/dash/desktop/mill.png"
       inkscape:export-xdpi="12.279989"
       inkscape:export-ydpi="12.279989" />
    <use
       x="0"
       y="0"
       inkscape:tiled-clone-of="#path4851"
       xlink:href="#path4851"
       transform="translate(54.208074)"
       id="use4922"
       width="100%"
       height="100%"
       style="fill:#ffffff;fill-opacity:1"
       inkscape:export-filename="/Users/dash/desktop/mill.png"
       inkscape:export-xdpi="12.279989"
       inkscape:export-ydpi="12.279989" />
    <use
       x="0"
       y="0"
       inkscape:tiled-clone-of="#path4851"
       xlink:href="#path4851"
       transform="translate(65.049683)"
       id="use4924"
       width="100%"
       height="100%"
       style="fill:#ffffff;fill-opacity:1"
       inkscape:export-filename="/Users/dash/desktop/mill.png"
       inkscape:export-xdpi="12.279989"
       inkscape:export-ydpi="12.279989" />
    <use
       x="0"
       y="0"
       inkscape:tiled-clone-of="#path4851"
       xlink:href="#path4851"
       transform="translate(86.732924)"
       id="use4928"
       width="100%"
       height="100%"
       style="fill:#ffffff;fill-opacity:1"
       inkscape:export-filename="/Users/dash/desktop/mill.png"
       inkscape:export-xdpi="12.279989"
       inkscape:export-ydpi="12.279989" />
    <use
       x="0"
       y="0"
       inkscape:tiled-clone-of="#path4851"
       xlink:href="#path4851"
       transform="translate(97.574528)"
       id="use4930"
       width="100%"
       height="100%"
       style="fill:#ffffff;fill-opacity:1"
       inkscape:export-filename="/Users/dash/desktop/mill.png"
       inkscape:export-xdpi="12.279989"
       inkscape:export-ydpi="12.279989" />
    <ellipse
       inkscape:tile-y0="123.03645"
       inkscape:tile-x0="72.533633"
       inkscape:tile-h="5.1026787"
       inkscape:tile-w="5.0081843"
       inkscape:tile-cy="125.58779"
       inkscape:tile-cx="75.037726"
       ry="4.8026848"
       rx="4.7137456"
       cy="186.94023"
       cx="19.492783"
       id="ellipse4932"
       style="opacity:1;fill:#ffffff;fill-opacity:1;stroke:none;stroke-width:0.48445162"
       inkscape:export-filename="/Users/dash/desktop/mill.png"
       inkscape:export-xdpi="12.279989"
       inkscape:export-ydpi="12.279989" />
    <use
       style="fill:#ffffff;fill-opacity:1"
       height="100%"
       width="100%"
       id="use4934"
       transform="translate(-24.789425,74.162287)"
       xlink:href="#path4851"
       inkscape:tiled-clone-of="#path4851"
       y="0"
       x="0"
       inkscape:export-filename="/Users/dash/desktop/mill.png"
       inkscape:export-xdpi="12.279989"
       inkscape:export-ydpi="12.279989" />
    <ellipse
       style="opacity:1;fill:#ffffff;fill-opacity:1;stroke:none;stroke-width:0.48445162"
       id="ellipse4936"
       cx="178.58952"
       cy="187.35454"
       rx="4.7137456"
       ry="4.8026848"
       inkscape:tile-cx="75.037726"
       inkscape:tile-cy="125.58779"
       inkscape:tile-w="5.0081843"
       inkscape:tile-h="5.1026787"
       inkscape:tile-x0="72.533633"
       inkscape:tile-y0="123.03645"
       inkscape:export-filename="/Users/dash/desktop/mill.png"
       inkscape:export-xdpi="12.279989"
       inkscape:export-ydpi="12.279989" />
    <use
       x="0"
       y="0"
       inkscape:tiled-clone-of="#path4851"
       xlink:href="#path4851"
       transform="translate(134.3073,74.576601)"
       id="use4938"
       width="100%"
       height="100%"
       style="fill:#ffffff;fill-opacity:1"
       inkscape:export-filename="/Users/dash/desktop/mill.png"
       inkscape:export-xdpi="12.279989"
       inkscape:export-ydpi="12.279989" />
  </g>
</svg>
